<?xml version="1.0" encoding="UTF-8" standalone="no"?>
<svg
   version="1.2"
   viewBox="810 789.6 3651.28 3512.4"
   id="svg2"
   sodipodi:docname="logo-with-text (1).svg"
   inkscape:version="1.4.2 (ebf0e940d0, 2025-05-08)"
   xmlns:inkscape="http://www.inkscape.org/namespaces/inkscape"
   xmlns:sodipodi="http://sodipodi.sourceforge.net/DTD/sodipodi-0.dtd"
   xmlns="http://www.w3.org/2000/svg"
   xmlns:svg="http://www.w3.org/2000/svg">
  <defs
     id="defs2" />
  <sodipodi:namedview
     id="namedview2"
     pagecolor="#505050"
     bordercolor="#ffffff"
     borderopacity="1"
     inkscape:showpageshadow="0"
     inkscape:pageopacity="0"
     inkscape:pagecheckerboard="1"
     inkscape:deskcolor="#505050"
     inkscape:zoom="0.20814618"
     inkscape:cx="1825.64"
     inkscape:cy="1755.9775"
     inkscape:window-width="2036"
     inkscape:window-height="1232"
     inkscape:window-x="0"
     inkscape:window-y="0"
     inkscape:window-maximized="1"
     inkscape:current-layer="svg2" />
  <title
     id="title1">swarm-academy-logo</title>
  <style
     id="style1"> tspan { white-space:pre } .s0 { fill: #fda932 } .s1 { fill: #fdaa32 } .s2 { fill: #fd9d31
		} .s3 { fill: #fd9b31 } .s4 { fill: #fdc030 } .s5 { fill: #fc9731 } .s6 { fill: #fcc530 } .t7 {
		font-size: 125px;fill: #000;font-weight: 500;font-family: &quot;LEMONMILK-Medium&quot;, &quot;LEMON MILK&quot; } .t8
		{ font-size: 89px;fill: #000;font-weight: 500;font-family: &quot;LEMONMILK-Medium&quot;, &quot;LEMON MILK&quot; } </style>
  <path
     id="wing r2"
     class="s0"
     d="m 2865.0573,1480.6454 c 0,0 347.7052,-30.5025 649.5962,-27.9708 302.0116,2.5319 448.4962,26.8857 448.4962,26.8857 0,0 3.1347,65.2249 -93.4367,219.6668 -96.4508,154.4418 -176.3844,180.363 -176.3844,180.363 0,0 -150.3427,-21.7015 -380.2573,-126.1094 -229.7941,-104.5286 -448.014,-272.8353 -448.014,-272.8353 z"
     style="stroke-width:1.20564" />
  <path
     id="wing l2"
     class="s1"
     d="m 2446.8225,1480.6454 c 0,0 -347.7051,-30.5025 -649.5962,-27.9708 -302.0116,2.5319 -448.4963,26.8857 -448.4963,26.8857 0,0 -3.1346,65.2249 93.4368,219.6668 96.4508,154.4418 176.2638,180.363 176.2638,180.363 0,0 150.4633,-21.7015 380.2574,-126.1094 229.9146,-104.5286 448.1345,-272.8353 448.1345,-272.8353 z"
     style="stroke-width:1.20564" />
  <path
     id="wing r3"
     class="s2"
     d="m 3740.7101,2307.47 c 0,0 16.0349,-69.3241 -200.6177,-228.1063 -599.2006,-439.5744 -766.9045,-488.1615 -766.9045,-488.1615 0,0 -23.751,93.3161 147.5698,364.1017 218.5816,345.7762 326.9682,342.8827 326.9682,342.8827 0,0 88.6141,25.8006 265.3603,31.9492 122.613,4.3404 227.6239,-22.6658 227.6239,-22.6658 z"
     style="stroke-width:1.20564" />
  <path
     id="wing l3"
     class="s3"
     d="m 1563.092,2307.47 c 0,0 -16.035,-69.3241 200.4971,-228.1063 599.3212,-439.5744 766.9045,-488.1615 766.9045,-488.1615 0,0 23.751,93.3161 -147.4492,364.1017 -218.5817,345.7762 -326.9682,342.8827 -326.9682,342.8827 0,0 -88.7348,25.8006 -265.4809,31.9492 -122.6131,4.3404 -227.5033,-22.6658 -227.5033,-22.6658 z"
     style="stroke-width:1.20564" />
  <path
     id="wing l1"
     class="s4"
     d="m 1423.2383,802.23454 c 0,0 55.3386,-44.72907 293.2104,80.05416 658.0356,345.2938 775.2234,474.538 775.2234,474.538 0,0 -73.3026,62.3313 -391.8314,27.3679 -406.6607,-44.488 -451.6309,-143.1089 -451.6309,-143.1089 0,0 -62.0902,-68.3595 -145.3996,-224.3687 -57.6294,-108.26601 -79.5719,-214.48246 -79.5719,-214.48246 z"
     style="stroke-width:1.20564" />
  <path
     id="wing r1"
     class="s4"
     d="m 3896.4781,802.23454 c 0,0 -55.3386,-44.72907 -293.2104,80.05416 -658.0357,345.2938 -775.2233,474.538 -775.2233,474.538 0,0 73.3025,62.3313 391.8313,27.3679 406.6607,-44.488 451.6309,-143.1089 451.6309,-143.1089 0,0 62.0903,-68.3595 145.2791,-224.3687 57.7499,-108.26601 79.6924,-214.48246 79.6924,-214.48246 z"
     style="stroke-width:1.20564" />
  <path
     id="abdomen"
     class="s5"
     d="m 2409.5684,2121.4405 c 0,0 29.0558,-77.884 108.9894,-219.0639 79.9336,-141.0594 138.0452,-219.1845 138.0452,-219.1845 0,0 80.8981,111.5212 129.4852,219.1845 48.4665,107.7838 79.3308,200.4971 79.3308,200.4971 0,0 -44.9701,219.7872 -77.0401,321.6634 -64.2604,204.2346 -131.4142,396.5333 -131.4142,396.5333 0,0 -125.2655,-293.8132 -161.6757,-409.313 -36.2896,-115.6204 -85.7206,-290.3169 -85.7206,-290.3169 z"
     style="stroke-width:1.20564" />
  <path
     id="head"
     class="s6"
     d="m 2651.4188,1321.5016 c -118.2728,0 -213.8796,-93.5573 -213.8796,-209.2983 0,-115.74096 95.6068,-209.29824 213.8796,-209.29824 118.3934,0 214.0002,93.55728 214.0002,209.29824 0,115.741 -95.6068,209.2983 -214.0002,209.2983 z"
     style="stroke-width:1.20564" />
  <path
     style="font-weight:500;font-size:895.853px;font-family:'LEMON MILK';-inkscape-font-specification:'LEMON MILK, Medium';white-space:pre;stroke-width:5.6711"
     d="m 1106.2079,3711.5954 c 150.9128,0 255.8955,-81.7991 255.8955,-210.403 0,-108.4822 -73.4879,-167.9725 -190.2812,-223.0884 -80.9243,-38.0563 -134.2905,-52.4914 -134.2905,-94.4845 0,-36.3066 39.3685,-66.9265 92.2973,-66.9265 39.3686,0 80.0494,17.0597 101.046,59.0528 l 104.5453,-73.0505 c -31.9323,-85.2986 -111.5442,-125.1045 -207.7784,-125.1045 -129.47876,0 -232.71182,80.4868 -232.71182,202.5293 0,112.419 87.04822,155.7244 166.22272,195.0929 73.9254,36.744 158.349,77.4248 158.349,129.0414 0,37.6188 -44.6177,64.7394 -111.1067,64.7394 -60.8026,0 -105.8577,-22.7463 -136.91508,-72.6131 l -113.29391,79.6119 c 47.24225,87.4857 132.54075,135.6028 248.02179,135.6028 z m 484.2331,-5.2492 h 7.8737 l 174.5339,-383.1871 177.1584,383.1871 h 8.3111 l 229.6499,-713.8829 h -153.0999 l -108.0448,355.1918 -150.9127,-352.5672 h -2.6246 l -151.3502,353.0046 -108.4822,-355.6292 h -152.6624 z m 1009.5844,-8.7485 h 153.5373 l -337.2572,-722.6315 h -4.3743 l -336.8197,722.6315 h 153.0999 l 45.0551,-98.4214 h 282.1412 z m -271.643,-219.1516 86.1734,-188.5316 85.7359,188.5316 z m 1035.3927,219.1516 -200.3421,-280.3915 c 75.6751,-26.6832 130.3536,-105.8577 130.3536,-196.4053 0,-126.8542 -108.0448,-228.3376 -239.7107,-228.3376 h -230.0872 l 0.4374,705.1344 h 141.7267 v -333.3204 l 224.4007,333.3204 z m -398.0597,-564.7199 h 90.9851 c 47.6797,0 90.9851,38.4937 90.9851,88.7979 0,50.3043 -42.868,89.2354 -90.9851,88.798 l -90.9851,-0.4375 z m 1148.2491,-157.9116 -337.2571,465.8611 -337.6946,-465.8611 h -7.8737 v 722.6315 h 141.7267 V 3390.523 l 203.4041,295.2641 h 0.8749 l 202.9667,-295.2641 v 307.0747 h 141.7267 v -722.6315 z"
     id="SWARM"
     transform="scale(1.0571606,0.9459301)"
     aria-label="SWARM" />
  <path
     style="font-weight:500;font-size:763.912px;font-family:'LEMON MILK';-inkscape-font-specification:'LEMON MILK, Medium';white-space:pre;stroke-width:4.33108"
     d="m 1376.8236,3856.1858 h 130.9244 l -287.586,-616.2025 h -3.7301 l -287.21295,616.2025 h 130.55135 l 38.4194,-83.9259 h 240.5875 z m -231.6354,-186.875 73.4818,-160.7646 73.1087,160.7646 z m 654.9949,198.4381 c 91.0129,0 155.5426,-39.5384 208.5091,-92.132 l -69.3787,-97.727 c -39.9114,39.1654 -87.6559,68.6327 -142.8605,68.6327 -92.878,0 -188.367,-82.8068 -188.367,-189.8589 0,-105.1871 92.132,-190.978 188.74,-190.978 51.8476,0 101.0841,24.6182 142.1145,64.9026 l 69.7517,-95.116 c -63.0376,-60.7996 -132.4164,-91.7589 -210.7472,-92.8779 -169.3437,0 -312.2042,143.6065 -312.2042,313.3233 0,168.9707 140.9954,311.8312 314.4423,311.8312 z m 679.6131,-11.5631 h 130.9243 l -287.586,-616.2025 h -3.73 l -287.213,616.2025 h 130.5513 l 38.4194,-83.9259 h 240.5876 z m -231.6355,-186.875 73.4818,-160.7646 73.1088,160.7646 z m 597.5523,-414.4073 -174.9389,0.373 v 600.9093 h 174.9389 c 194.335,0 312.9502,-113.3932 312.9502,-299.8951 0,-187.621 -118.6152,-301.7602 -312.9502,-301.3872 z m 0.746,480.802 h -55.2046 v -361.0677 h 54.0856 c 118.9882,0 191.351,68.6327 191.351,181.2799 0,111.9011 -71.9898,179.7878 -190.232,179.7878 z m 753.0949,-361.8138 v -118.9882 h -362.5598 v 601.2823 h 362.5598 v -120.1073 h -241.7065 v -124.2103 h 207.3901 V 3491.388 h -207.3901 v -117.4963 z m 671.034,-133.9084 -287.586,397.2492 -287.959,-397.2492 h -6.7141 v 616.2025 h 120.8533 v -261.8487 l 173.4468,251.7776 h 0.746 l 173.0738,-251.7776 v 261.8487 h 120.8533 v -616.2025 z m 252.8967,616.2025 h 120.1073 v -258.1187 l 186.5019,-343.1636 h -136.8924 l -109.6632,208.8822 -109.6631,-208.8822 h -136.5194 l 186.1289,343.1636 z"
     id="ACADEMY"
     transform="scale(0.91120756,1.0974448)"
     aria-label="ACADEMY" />
</svg>
